<?xml version="1.0" standalone="no"?><!DOCTYPE svg PUBLIC "-//W3C//DTD SVG 1.1//EN" "http://www.w3.org/Graphics/SVG/1.1/DTD/svg11.dtd"><svg t="1768202327786" class="icon" viewBox="0 0 1024 1024" version="1.1" xmlns="http://www.w3.org/2000/svg" p-id="2172" xmlns:xlink="http://www.w3.org/1999/xlink" width="200" height="200"><path d="M102.47168 0h819.2a102.4 102.4 0 0 1 102.4 102.4v819.2a102.4 102.4 0 0 1-102.4 102.4h-819.2a102.4 102.4 0 0 1-102.4-102.4V102.4a102.4 102.4 0 0 1 102.4-102.4z" fill="#FF875D" p-id="2173"></path><path d="M512 522.24m-409.6 0a409.6 409.6 0 1 0 819.2 0 409.6 409.6 0 1 0-819.2 0Z" fill="#B3B8BD" p-id="2174"></path><path d="M512 491.52m-409.6 0a409.6 409.6 0 1 0 819.2 0 409.6 409.6 0 1 0-819.2 0Z" fill="#FFFFFF" p-id="2175"></path><path d="M261.12 455.68m-97.28 0a97.28 97.28 0 1 0 194.56 0 97.28 97.28 0 1 0-194.56 0Z" fill="#FFD95C" p-id="2176"></path><path d="M404.48 271.36m-97.28 0a97.28 97.28 0 1 0 194.56 0 97.28 97.28 0 1 0-194.56 0Z" fill="#F36C52" p-id="2177"></path><path d="M650.24 271.36m-97.28 0a97.28 97.28 0 1 0 194.56 0 97.28 97.28 0 1 0-194.56 0Z" fill="#7BE3FD" p-id="2178"></path><path d="M711.68 650.24m-97.28 0a97.28 97.28 0 1 0 194.56 0 97.28 97.28 0 1 0-194.56 0Z" fill="#B3B8BD" p-id="2179"></path><path d="M711.68 650.24m-97.28 0a97.28 97.28 0 1 0 194.56 0 97.28 97.28 0 1 0-194.56 0Z" fill="#B3B8BD" p-id="2180"></path><path d="M716.87168 573.44c53.72928 0 92.16 23.07072 92.16 76.8a97.28 97.28 0 0 1-194.56 0c0-53.72928 48.68096-76.8 102.4-76.8z" fill="#FF875D" p-id="2181"></path><path d="M406.92736 601.088c-20.6336 26.74688-63.488 26.7264-86.51776-16.30208-15.9744-29.91104-3.61472-118.29248-3.61472-118.29248a104.25344 104.25344 0 0 0 59.05408 61.85984c41.7792 17.59232 59.0336 36.42368 31.0784 72.73472z" fill="#FBC826" p-id="2182"></path><path d="M472.04352 643.30752l-70.12352 46.75584-42.87488-72.704 59.33056-39.55712z" fill="#DCDDDC" p-id="2183"></path><path d="M407.30624 676.05504l54.5792-46.46912L716.87168 993.28z" fill="#202F4F" p-id="2184"></path></svg>